<svg xmlns="http://www.w3.org/2000/svg" width="32" height="33" fill="none"><path fill="#F5F5F5" d="M0 0h32v33H0z"/><g clip-path="url(#a)"><path fill="#fff" d="M-1042-2253H398v4533h-1440z"/><path fill="#FE390C" d="M-20-38.943h230v260.059H-20z"/><path fill="#fff" fill-rule="evenodd" d="M19.863 3.856a1 1 0 0 1 0 2h-9.691c-3.344 0-5.505 2.3-5.505 5.86v10.779c0 3.607 2.109 5.848 5.505 5.848h11.472c3.344 0 5.505-2.295 5.505-5.848v-9.388a1 1 0 0 1 2 0v9.388c0 4.694-3.016 7.848-7.505 7.848H10.172c-4.49 0-7.505-3.154-7.505-7.848V11.716c0-4.7 3.016-7.86 7.505-7.86h9.69Zm2.82 9.108a1 1 0 0 1 .179 1.403l-3.907 5.042a.995.995 0 0 1-.667.38.989.989 0 0 1-.74-.206l-3.758-2.952-3.375 4.386a.999.999 0 1 1-1.585-1.219l3.99-5.188a1 1 0 0 1 1.411-.176l3.76 2.954 3.29-4.245a.995.995 0 0 1 1.402-.179Zm3.94-10.231a3.566 3.566 0 0 1 3.563 3.563 3.567 3.567 0 0 1-3.563 3.565 3.568 3.568 0 0 1-3.563-3.565 3.567 3.567 0 0 1 3.563-3.563Zm0 2a1.564 1.564 0 0 0 0 3.128 1.564 1.564 0 0 0 0-3.127Z" clip-rule="evenodd"/></g><defs><clipPath id="a"><path fill="#fff" d="M-1042-2253H398v4533h-1440z"/></clipPath></defs></svg>