<svg xmlns="http://www.w3.org/2000/svg" width="20" height="20" fill="none"><path fill="#F5F5F5" d="M0 0h20v20H0z"/><g clip-path="url(#a)"><path fill="#fff" d="M-1196-2681H244v4533h-1440z"/><path fill="#F7F7F7" d="M-1196-123H244v620h-1440z"/><rect width="40" height="40" fill="#FE390C" rx="2" transform="matrix(0 -1 -1 0 30 30)"/><path fill="#fff" d="M16.667 9.771a.625.625 0 0 0-.54-.619l-.085-.006H5.055l3.97-3.952a.625.625 0 0 0-.813-.946l-.07.06L3.1 9.328a.627.627 0 0 0-.183.42v.048l.002.036-.002-.06a.628.628 0 0 0 .123.372l.005.007a.622.622 0 0 0 .055.062l5.042 5.022a.625.625 0 0 0 .943-.816l-.06-.07-3.968-3.952h10.985c.345 0 .625-.28.625-.626Z"/></g><defs><clipPath id="a"><path fill="#fff" d="M-1196-2681H244v4533h-1440z"/></clipPath></defs></svg>