<svg xmlns="http://www.w3.org/2000/svg" width="20" height="20" fill="none"><path fill="#F5F5F5" d="M0 0h20v20H0z"/><g clip-path="url(#a)"><path fill="#fff" d="M-1260-2681H180v4533h-1440z"/><path fill="#F7F7F7" d="M-1260-123H180v620h-1440z"/><rect width="40" height="40" x="-10" y="30" fill="#FE390C" rx="2" transform="rotate(-90 -10 30)"/><path fill="#fff" d="M3.333 9.771c0-.316.235-.578.54-.619l.085-.006h10.987l-3.97-3.952a.625.625 0 0 1 .813-.946l.07.06 5.041 5.02a.62.62 0 0 1 .184.42v.048a.645.645 0 0 1-.002.036l.002-.06a.627.627 0 0 1-.123.372l-.005.007a.625.625 0 0 1-.055.062l-5.042 5.022a.625.625 0 0 1-.943-.816l.06-.07 3.968-3.952H3.958a.625.625 0 0 1-.625-.626Z"/></g><defs><clipPath id="a"><path fill="#fff" d="M-1260-2681H180v4533h-1440z"/></clipPath></defs></svg>