<svg xmlns="http://www.w3.org/2000/svg" width="145" height="28" fill="none"><g fill="#A7AAB4"><path d="M11.975 22.742c.571 0 1.113-.053 1.623-.171.516-.119.975-.305 1.362-.582.388-.265.708-.63.941-1.094.234-.459.346-1.055.346-1.776 0-1.413-.381-2.416-1.139-3.025-.76-.6-1.772-.899-3.017-.899h-6.29v7.547h6.174Zm-.319-11.666c1.025 0 1.873-.254 2.545-.77.666-.505.989-1.343.989-2.492 0-.637-.108-1.164-.323-1.573a2.443 2.443 0 0 0-.891-.954 3.5 3.5 0 0 0-1.274-.48 7.404 7.404 0 0 0-1.488-.136H5.802v6.405h5.854ZM12.404.003c1.257 0 2.39.113 3.428.347 1.03.228 1.91.61 2.653 1.132.733.521 1.305 1.215 1.716 2.09.4.861.601 1.94.601 3.215 0 1.38-.3 2.532-.9 3.453-.605.92-1.494 1.675-2.682 2.26 1.618.486 2.815 1.34 3.609 2.554.798 1.222 1.188 2.685 1.188 4.399 0 1.39-.255 2.586-.764 3.592a6.914 6.914 0 0 1-2.078 2.482c-.87.644-1.87 1.115-2.99 1.422a12.82 12.82 0 0 1-3.433.461H.017V.003h12.387ZM36.268 12.225c-.621-.717-1.673-1.105-2.956-1.105-.835 0-1.526.146-2.079.445-.54.295-.985.662-1.323 1.094-.337.44-.568.902-.701 1.398a6.556 6.556 0 0 0-.239 1.308h8.503c-.125-1.39-.581-2.418-1.205-3.14ZM30.264 22.65c.783.797 1.914 1.199 3.38 1.199 1.053 0 1.964-.278 2.728-.833.757-.552 1.218-1.145 1.397-1.759h4.601c-.739 2.389-1.861 4.095-3.393 5.12-1.512 1.032-3.358 1.546-5.508 1.546-1.499 0-2.848-.254-4.058-.751a8.622 8.622 0 0 1-3.073-2.135c-.829-.926-1.472-2.02-1.931-3.306-.454-1.28-.684-2.695-.684-4.23 0-1.485.239-2.87.703-4.152.475-1.285 1.13-2.395 1.992-3.325a9.444 9.444 0 0 1 3.083-2.213c1.194-.538 2.51-.807 3.968-.807 1.61 0 3.019.322 4.227.981a8.529 8.529 0 0 1 2.967 2.629c.776 1.1 1.327 2.357 1.672 3.766a14.66 14.66 0 0 1 .364 4.42H28.97c0 1.568.51 3.053 1.294 3.85ZM50.12.003v10.334h.12c.664-1.15 1.503-1.986 2.534-2.504 1.03-.522 2.035-.78 3.014-.78 1.395 0 2.539.191 3.432.585.894.402 1.6.945 2.119 1.652.508.704.867 1.562 1.077 2.574.207 1.01.314 2.123.314 3.351V27.41h-5.251V16.205c0-1.634-.245-2.862-.732-3.666-.488-.804-1.354-1.208-2.603-1.208-1.413 0-2.434.447-3.067 1.328-.644.881-.956 2.332-.956 4.351v10.4h-5.25V.003h5.25ZM76.745 18.191a9.693 9.693 0 0 1-1.056.29c-.383.076-.784.137-1.199.191-.41.052-.834.112-1.244.189-.39.08-.782.18-1.154.31-.38.129-.711.3-.985.517-.283.22-.509.494-.681.824-.168.331-.258.761-.258 1.269 0 .485.09.894.258 1.23.172.333.398.593.694.786.295.192.642.328 1.027.402a5.94 5.94 0 0 0 1.209.112c1.028 0 1.82-.178 2.385-.535.561-.36.984-.788 1.249-1.287.269-.5.432-1.004.485-1.512.068-.51.1-.923.1-1.232v-2.039c-.227.21-.494.37-.83.485ZM66.46 10.47A6.29 6.29 0 0 1 68.51 8.43c.834-.516 1.766-.879 2.814-1.096a14.924 14.924 0 0 1 3.146-.33c.953 0 1.917.07 2.91.21.977.141 1.87.417 2.68.828.809.413 1.468.979 1.979 1.716.518.72.78 1.694.78 2.9v10.344c0 .899.052 1.753.144 2.571.104.826.372 1.445.625 1.85l-5.337-.013c-.157-.237-.287-.609-.347-.932a8.132 8.132 0 0 1-.13-.977c-.83.898-1.805 1.528-2.94 1.888a11.416 11.416 0 0 1-3.454.535c-.904 0-1.746-.12-2.535-.35a5.801 5.801 0 0 1-2.053-1.073 5.03 5.03 0 0 1-1.376-1.847c-.329-.745-.499-1.631-.499-2.656 0-1.13.195-2.06.58-2.789.373-.728.86-1.314 1.467-1.748a6.292 6.292 0 0 1 2.061-.98c.77-.217 1.552-.396 2.328-.522a41.905 41.905 0 0 1 2.318-.307c.767-.078 1.432-.19 2.026-.345.585-.152 1.054-.383 1.398-.676.339-.293.501-.72.478-1.288 0-.587-.1-1.056-.28-1.405a2.102 2.102 0 0 0-.727-.804 2.842 2.842 0 0 0-1.056-.388 8.675 8.675 0 0 0-1.298-.096c-1.023 0-1.832.238-2.405.693-.59.47-.93 1.242-1.034 2.32h-5.242c.076-1.287.38-2.35.928-3.194ZM90.657 7.57v2.767h.117c.661-1.15 1.514-1.986 2.574-2.504a7.222 7.222 0 0 1 3.242-.78c1.402 0 2.552.191 3.441.586.905.401 1.609.945 2.119 1.651.522.704.882 1.562 1.091 2.574.212 1.01.316 2.123.316 3.351V27.41h-5.252V16.205c0-1.634-.247-2.862-.737-3.666-.497-.804-1.354-1.32-2.612-1.32-1.422 0-2.457.559-3.094 1.44-.64.881-.957 2.332-.957 4.351v10.4h-5.197V7.57h4.95ZM115.185 11.12c-.84 0-1.534.193-2.092.595-.569.4-1.034.909-1.389 1.538a6.904 6.904 0 0 0-.756 2.075 12.191 12.191 0 0 0-.222 2.252c0 .72.08 1.45.222 2.194.153.741.387 1.41.719 2.02a4.355 4.355 0 0 0 1.348 1.477c.561.386 1.245.579 2.056.579 1.258 0 2.222-.367 2.897-1.092.673-.73 1.089-1.71 1.264-2.938h5.047c-.347 2.632-1.328 4.643-2.944 6.03-1.621 1.376-3.697 2.074-6.225 2.074-1.429 0-2.727-.254-3.924-.751-1.195-.505-2.21-1.2-3.046-2.097-.836-.9-1.485-1.968-1.96-3.21-.464-1.245-.697-2.612-.697-4.095 0-1.536.216-2.967.646-4.29.428-1.317 1.061-2.46 1.904-3.417a8.669 8.669 0 0 1 3.065-2.252c1.203-.538 2.578-.807 4.122-.807 1.129 0 2.213.159 3.261.457a8.444 8.444 0 0 1 2.795 1.402 7.436 7.436 0 0 1 2.011 2.335c.51.93.801 2.043.882 3.316h-5.124c-.339-2.265-1.627-3.395-3.86-3.395ZM27.902 1.842h10.65v2.705h-10.65V1.842ZM138.205 12.225c-.63-.717-1.69-1.105-2.957-1.105-.834 0-1.527.146-2.09.445-.542.295-1.036.662-1.369 1.094a4.18 4.18 0 0 0-.709 1.398c-.124.482-.211.92-.234 1.308h8.567c-.14-1.39-.585-2.418-1.208-3.14Zm-6.069 10.426c.785.797 1.97 1.199 3.447 1.199 1.051 0 1.96-.278 2.719-.833.76-.552 1.23-1.145 1.398-1.759h4.601c-.735 2.389-1.864 4.095-3.386 5.12-1.518 1.032-3.356 1.546-5.514 1.546-1.503 0-2.856-.254-4.058-.751a8.588 8.588 0 0 1-3.068-2.135c-.838-.926-1.48-2.02-1.937-3.306-.454-1.28-.68-2.695-.68-4.23 0-1.485.234-2.87.699-4.152.471-1.285 1.14-2.395 1.997-3.325a9.488 9.488 0 0 1 3.075-2.213c1.195-.538 2.522-.807 3.972-.807 1.607 0 3.023.322 4.219.981a8.456 8.456 0 0 1 2.969 2.629c.776 1.1 1.333 2.357 1.676 3.766.337 1.408.466 2.879.37 4.42h-13.789c0 1.568.502 3.053 1.29 3.85Z"/></g></svg>