<svg xmlns="http://www.w3.org/2000/svg" width="27" height="27" fill="none"><path fill="#FE390C" fill-rule="evenodd" d="M6.333 15.403c5.426 0 5.667 1.84 5.667 5.668 0 1.918 0 3.282-.805 4.28-.927 1.152-2.614 1.388-4.862 1.388s-3.934-.236-4.86-1.387c-.806-1-.806-2.362-.806-4.248l1-.033h-1c0-3.828.241-5.668 5.666-5.668Zm14.667 0c5.425 0 5.667 1.84 5.667 5.668 0 1.918 0 3.282-.806 4.28-.926 1.152-2.613 1.388-4.86 1.388-2.249 0-3.936-.236-4.862-1.387-.806-1-.806-2.362-.806-4.248l1-.033h-1c0-3.828.242-5.668 5.667-5.668Zm-14.392 2h-.275c-3.478 0-3.657.25-3.666 3.17v1.138c.007 1.162.051 2 .361 2.387.353.438 1.403.64 3.305.64 1.903 0 2.952-.204 3.306-.641.361-.45.361-1.517.361-2.994 0-3.335 0-3.683-3.392-3.7Zm14.667 0H21c-3.479 0-3.657.25-3.666 3.17v1.138c.007 1.162.051 2 .36 2.387.354.438 1.403.64 3.306.64s2.952-.204 3.305-.641c.362-.45.362-1.517.362-2.994 0-3.335 0-3.683-3.392-3.7ZM6.333.734C11.76.733 12 2.573 12 6.4c0 1.918 0 3.282-.805 4.28-.927 1.152-2.614 1.388-4.862 1.388s-3.934-.236-4.86-1.387c-.806-1-.806-2.362-.806-4.248l1-.033h-1C.667 2.573.908.733 6.333.733ZM21 .733c5.425 0 5.667 1.84 5.667 5.668 0 1.918 0 3.282-.806 4.28-.926 1.152-2.613 1.388-4.86 1.388-2.249 0-3.936-.236-4.862-1.387-.806-1-.806-2.362-.806-4.248l1-.033h-1c0-3.828.242-5.668 5.667-5.668ZM6.608 2.734h-.275c-3.478 0-3.657.249-3.666 3.17V7.04c.007 1.162.051 2 .361 2.387.353.438 1.403.64 3.305.64 1.903 0 2.952-.204 3.306-.641C10 8.977 10 7.91 10 6.433c0-3.334 0-3.683-3.392-3.699Zm14.667 0H21c-3.479 0-3.657.249-3.666 3.17V7.04c.007 1.162.051 2 .36 2.387.354.438 1.403.64 3.306.64s2.952-.204 3.305-.641c.362-.45.362-1.516.362-2.994 0-3.334 0-3.683-3.392-3.699Z" clip-rule="evenodd"/></svg>