<svg xmlns="http://www.w3.org/2000/svg" width="29" height="30" fill="none"><path fill="#FE390C" fill-rule="evenodd" d="M20.915.4C25.75.4 29 3.795 29 8.848v11.776c0 5.053-3.25 8.449-8.085 8.449H8.419c-4.836 0-8.086-3.396-8.086-8.449V8.848C.333 3.795 3.583.4 8.42.4h12.496Zm0 2H8.419c-3.696 0-6.086 2.53-6.086 6.448v11.776c0 3.919 2.39 6.448 6.086 6.448h12.496c3.697 0 6.085-2.53 6.085-6.448V8.848C27 4.93 24.612 2.4 20.915 2.4ZM8.495 11.34a1 1 0 0 1 1 1v9.149a1 1 0 0 1-2 0v-9.149a1 1 0 0 1 1-1Zm6.223-4.38a1 1 0 0 1 1 1v13.527a1 1 0 0 1-2 0V7.96a1 1 0 0 1 1-1Zm6.12 9.214a1 1 0 0 1 1 1v4.313a1 1 0 0 1-2 0v-4.313a1 1 0 0 1 1-1Z" clip-rule="evenodd"/></svg>