<svg xmlns="http://www.w3.org/2000/svg" width="118" height="28" fill="none"><path fill="#A7AAB4" d="M35.775 11.183c1.34 0 2.427-1.056 2.427-2.359 0-1.302-1.087-2.358-2.427-2.358S33.35 7.522 33.35 8.824c0 1.303 1.086 2.359 2.426 2.359Zm80.08 8.058c-.37-.253-.655-.294-.891.196-4.075 8.576-10.943 4.296-10.261 4.673 1.524-.677 5.53-3.8 4.925-8.11-.368-2.635-2.695-3.804-5.166-3.385-4.311.73-5.898 5.25-5.09 9.25.141.687.394 1.254.646 1.809-4.872 3.85-6.807-3.447-7.027-4.319-.009-.046 3.762-3.1 4.811-10.379 1.1-7.627-1.405-9.016-3.966-8.973-4.738.08-6.018 9.7-4.298 17.718-.144.037-.815.398-1.892.438-.776-2.37-4.088-4.448-4.955-3.647-2.17 2.003.526 5.918 2.423 6.225-1.14 6.82-8.266 5.131-6.94-3.413 2.321-4.188 4.086-10.415 3.771-14.174-.111-1.33-1.124-3.114-3.414-3.026-4.405.17-4.884 9.792-4.367 16.622-.026-.168-.271.83-2.076 1.326-.427-2.303-4.243-4.614-5.142-3.503-1.681 2.08 1.233 5.789 2.614 6.047-1.14 6.82-8.267 5.131-6.94-3.413 2.32-4.188 4.086-10.415 3.77-14.174-.11-1.33-1.123-3.114-3.414-3.026-4.404.17-4.883 9.792-4.367 16.622-.026-.17-.277.86-2.155 1.348-.063-2.987-3.893-4.357-4.813-3.404-1.64 1.7.375 5.186 2.24 6.047-1.14 6.82-8.267 5.131-6.94-3.413 2.32-4.188 4.086-10.415 3.77-14.174-.11-1.33-1.123-3.114-3.414-3.026-4.404.17-4.759 10.276-4.242 17.106-1.451 6.04-6.316 13.583-5.684-1.527.062-1.06.13-1.463-.414-1.86-.407-.308-1.334-.16-1.84-.147-.616.024-.77.374-.906.903-.318 1.366-.374 2.69-.42 4.498-.03.845-.1 1.24-.434 2.392-.335 1.152-2.244 3.259-3.289 2.907-1.45-.485-.974-4.462-.702-7.195.226-2.16-.499-3.129-2.356-3.482-1.088-.22-1.749-.186-2.881-.533-1.07-.328-1.313-2.297-3.597-1.64-1.25.358-.447 2.93-.747 4.837-1.476 9.378-4.548 9.636-5.973 5.08C20.23 6.07 15.67.048 13 .048c-2.78 0-5.96 1.86-4.614 13.77-.654-.185-.855-.285-1.572-.285-4.052 0-6.813 3.183-6.813 7.11 0 3.926 2.761 7.11 6.813 7.11 2.392 0 4.072-1.058 5.344-2.693.83 1.155 1.84 2.71 3.688 2.64 5.509-.208 7.111-11.188 7.3-11.8.589.088 1.146.255 1.69.343.906.132.972.48.951 1.366-.24 7.468 1.178 10.082 4.395 10.082 1.792 0 3.39-1.71 4.49-2.934.822 1.648 2.132 2.884 3.889 2.934 4.258.103 5.888-6.49 5.74-5.623-.117.68 1.38 5.586 5.763 5.604 5.43.022 6.44-5.78 6.56-6.752.015-.193.021-.173 0 0l-.005.06c1.724-.312 2.613-1.21 2.613-1.21s1.384 7.992 6.511 7.902c5.324-.094 6.328-5.338 6.46-6.36.017-.244.028-.215 0 0l-.002.03c2.047-.725 2.586-1.451 2.586-1.451s1.1 7.833 6.51 7.902c4.823.06 6.61-4.737 6.62-6.745.813.008 2.318-.469 2.282-.496 0 0 1.767 6.849 6.699 7.2 2.316.166 4.053-1.266 5.043-1.919 2.327 1.832 10.077 4.17 14.969-3.89.691-1.157-.794-2.524-1.054-2.702ZM6.618 25.093c-2.365 0-3.88-2.124-3.88-4.415 0-2.29 1.391-4.414 3.755-4.414 1.064 0 1.656.114 2.485.814.15.575.576 1.902.783 2.505.277.807.608 1.493.94 2.24-.475 1.916-2.034 3.27-4.083 3.27Zm5.76-7.948c-.097-.152-.077-.058-.187-.202-.433-1.146-1.268-3.703-1.365-6.607-.11-3.285.454-7.136 2.115-7.136 1.126 0 2.322 7.804-.562 13.945Zm33.29-3.422c-.267-1.95-.28-10.641 1.866-10.402 1.186.467-.751 8.668-1.866 10.402Zm15.679 0c-.267-1.95-.28-10.641 1.866-10.402 1.186.467-.751 8.668-1.866 10.402Zm15.554.12c-.267-1.95-.28-10.64 1.867-10.401 1.185.467-.752 8.668-1.867 10.402Zm17.172-11.03c1.964-.198 1.883 8.132-2.058 13.39-.508-1.9-1.287-12.738 2.058-13.39Zm8.252 17.924c-.631-3.095.998-5.127 2.678-5.35.587-.091 1.438.278 1.607.97.279 1.301-.04 3.232-3.799 5.683.005.02-.346-.613-.486-1.303Z"/></svg>