<svg xmlns="http://www.w3.org/2000/svg" width="28" height="28" fill="none"><path fill="#F5F5F5" d="M0 0h28v28H0z"/><g clip-path="url(#a)"><path fill="#fff" d="M-171-2255h1440v4533H-171z"/><path fill="#F7F7F7" d="M-22-40.943h230v260.059H-22z"/><path fill="#FE390C" fill-rule="evenodd" d="M13.323.782a1 1 0 0 1 0 2H8.337c-3.445 0-5.67 2.36-5.67 6.014v11.088c0 3.652 2.225 6.013 5.67 6.013h11.766c3.445 0 5.672-2.36 5.672-6.013v-5.372a1 1 0 0 1 2 0v5.372c0 4.793-3.084 8.013-7.672 8.013H8.337c-4.588 0-7.67-3.22-7.67-8.013V8.796c0-4.793 3.082-8.014 7.67-8.014h4.986Zm11.613 1.172 1.622 1.623c.79.79 1.226 1.839 1.224 2.956a4.145 4.145 0 0 1-1.224 2.954L16.546 19.502a3.87 3.87 0 0 1-2.753 1.14H8.798a1 1 0 0 1-1-1.026l.126-5.04a3.884 3.884 0 0 1 1.138-2.656h.002l9.964-9.966a4.186 4.186 0 0 1 5.908 0Zm-6.73 3.649-7.73 7.732a1.884 1.884 0 0 0-.552 1.29l-.1 4.016h3.969a1.88 1.88 0 0 0 1.34-.554l7.777-7.78-4.703-4.705Zm2.235-2.234-.82.819 4.702 4.705.822-.82c.41-.411.637-.958.637-1.54 0-.582-.226-1.13-.637-1.541l-1.623-1.623a2.186 2.186 0 0 0-3.081 0Z" clip-rule="evenodd"/></g><defs><clipPath id="a"><path fill="#fff" d="M-171-2255h1440v4533H-171z"/></clipPath></defs></svg>