<svg xmlns="http://www.w3.org/2000/svg" width="105" height="28" fill="none"><path fill="#A7AAB4" d="M20.078 11.948h-8.76a.408.408 0 0 0-.41.405v4.241c0 .224.184.406.41.406h3.418v5.27s-.768.258-2.89.258c-2.502 0-5.998-.905-5.998-8.518 0-7.614 3.64-8.616 7.058-8.616 2.96 0 4.234.516 5.045.764.255.077.49-.174.49-.398l.978-4.097a.377.377 0 0 0-.157-.317C18.932 1.113 16.923 0 11.847 0 5.999 0 0 2.464 0 14.307s6.868 13.608 12.656 13.608c4.792 0 7.699-2.027 7.699-2.027.12-.066.133-.232.133-.308V12.353a.408.408 0 0 0-.41-.405ZM65.201 1.482a.406.406 0 0 0-.407-.407h-4.932a.408.408 0 0 0-.409.407l.002 9.44h-7.689v-9.44a.407.407 0 0 0-.407-.407h-4.932a.408.408 0 0 0-.408.407V27.04c0 .226.183.41.408.41h4.932a.408.408 0 0 0 .407-.41V16.108h7.689l-.014 10.931a.41.41 0 0 0 .408.41h4.945a.408.408 0 0 0 .407-.41V1.482ZM29.37 4.9a3.179 3.179 0 0 0-3.181-3.18 3.18 3.18 0 0 0-3.18 3.18 3.182 3.182 0 1 0 6.36 0Zm-.392 16.763V9.864a.408.408 0 0 0-.408-.407h-4.917c-.225 0-.427.23-.427.455v16.901c0 .497.312.645.717.645h4.43c.486 0 .605-.236.605-.652v-5.144ZM84.053 9.457h-4.895a.408.408 0 0 0-.407.409v12.531s-1.244.901-3.009.901c-1.764 0-2.233-.793-2.233-2.504V9.866a.408.408 0 0 0-.407-.409h-4.968a.41.41 0 0 0-.408.409v11.756c0 5.082 2.861 6.326 6.797 6.326 3.228 0 5.831-1.767 5.831-1.767s.124.931.18 1.041c.057.11.203.222.36.222l3.16-.014a.41.41 0 0 0 .409-.408L84.46 9.866a.409.409 0 0 0-.408-.409Zm11.277 13.85c-1.698-.05-2.85-.813-2.85-.813V14.4s1.137-.689 2.53-.812c1.763-.157 3.462.37 3.462 4.534 0 4.39-.767 5.257-3.142 5.186Zm1.93-14.399c-2.78 0-4.67 1.229-4.67 1.229V1.482a.407.407 0 0 0-.407-.407h-4.947a.407.407 0 0 0-.407.407V27.04c0 .226.183.41.408.41h3.432c.154 0 .272-.08.358-.218.085-.137.208-1.178.208-1.178s2.023 1.898 5.852 1.898c4.495 0 7.073-2.258 7.073-10.136 0-7.877-4.117-8.907-6.9-8.907Zm-54.085.505h-3.7l-.005-4.84c0-.183-.096-.274-.31-.274H34.12c-.197 0-.302.085-.302.272v5.001s-2.526.604-2.697.653a.406.406 0 0 0-.296.39v3.143c0 .226.183.408.408.408h2.585v7.561c0 5.616 3.979 6.168 6.663 6.168 1.227 0 2.695-.39 2.937-.479.146-.053.231-.203.231-.366l.005-3.458a.414.414 0 0 0-.41-.408c-.215 0-.767.087-1.334.087-1.818 0-2.434-.837-2.434-1.92v-7.185h3.7a.408.408 0 0 0 .409-.408V9.82a.407.407 0 0 0-.409-.408Z"/></svg>