<svg xmlns="http://www.w3.org/2000/svg" width="114" height="28" fill="none"><g fill="#A7AAB4"><path d="m36.175 21.945 1.412-3.196c1.526 1.11 3.554 1.687 5.559 1.687 1.48 0 2.414-.555 2.414-1.398-.023-2.352-8.861-.51-8.93-6.413-.022-2.995 2.711-5.303 6.584-5.303 2.3 0 4.602.555 6.242 1.82l-1.322 3.261c-1.503-.931-3.371-1.597-5.148-1.597-1.207 0-2.005.555-2.005 1.265.023 2.307 8.93 1.043 9.021 6.678 0 3.062-2.665 5.215-6.492 5.215-2.802 0-5.376-.644-7.335-2.02Zm54.194-4.35 3.895 2.108c-1.458 2.552-4.237 4.26-7.449 4.26-4.715 0-8.542-3.727-8.542-8.32s3.827-8.32 8.542-8.32c3.19 0 5.991 1.73 7.45 4.26l-3.896 2.107a4.118 4.118 0 0 0-3.554-2.019c-2.255 0-4.078 1.775-4.078 3.972s1.823 3.972 4.078 3.972a4.118 4.118 0 0 0 3.554-2.02ZM51.962.423h4.874v23.231h-4.874V.422Zm44.216 0h4.875v13.646l5.513-6.413h5.968l-6.811 7.722 7.358 8.276h-6.242l-5.786-6.967v6.967h-4.875V.422ZM71.325 17.64v-3.927c-.707-1.154-2.164-2.042-3.805-2.042-2.255 0-4.077 1.775-4.077 3.972s1.822 3.972 4.077 3.972c1.64 0 3.099-.843 3.805-1.975Zm0-9.985H76.2v15.976h-4.875v-1.886c-.798 1.309-2.78 2.219-4.853 2.219-4.282 0-7.654-3.728-7.654-8.343s3.372-8.299 7.654-8.299c2.074 0 4.055.91 4.853 2.22V7.654ZM6.037 17.618c0 1.62-1.344 2.929-3.007 2.929s-3.007-1.31-3.007-2.93c0-1.619 1.344-2.928 3.007-2.928h3.007v2.929Zm1.503 0c0-1.62 1.344-2.93 3.007-2.93s3.007 1.31 3.007 2.93v7.322c0 1.62-1.344 2.929-3.007 2.929s-3.007-1.31-3.007-2.93v-7.321ZM10.547 5.858c-1.663 0-3.007-1.31-3.007-2.93C7.54 1.31 8.884 0 10.547 0s3.007 1.31 3.007 2.929v2.929h-3.007Zm0 1.486c1.663 0 3.007 1.31 3.007 2.93 0 1.619-1.344 2.928-3.007 2.928h-7.54C1.344 13.202 0 11.893 0 10.273c0-1.62 1.344-2.929 3.007-2.929h7.54ZM22.598 10.273c0-1.62 1.344-2.929 3.007-2.929s3.007 1.31 3.007 2.93c0 1.619-1.344 2.928-3.007 2.928h-3.007v-2.929Zm-1.504 0c0 1.62-1.344 2.93-3.007 2.93s-3.006-1.31-3.006-2.93V2.93C15.08 1.309 16.424 0 18.087 0c1.663 0 3.007 1.31 3.007 2.929v7.344ZM18.087 22.011c1.663 0 3.007 1.31 3.007 2.929 0 1.62-1.344 2.929-3.007 2.929s-3.006-1.31-3.006-2.93v-2.928h3.006Zm0-1.464c-1.663 0-3.006-1.31-3.006-2.93 0-1.619 1.343-2.928 3.006-2.928h7.54c1.664 0 3.008 1.309 3.008 2.929 0 1.62-1.344 2.929-3.007 2.929h-7.54Z"/></g></svg>