<svg xmlns="http://www.w3.org/2000/svg" width="93" height="28" fill="none"><path fill="#A7AAB4" d="M13.99 0c7.721 0 13.988 6.233 13.988 13.912 0 7.68-6.267 13.913-13.989 13.913S0 21.592 0 13.913C0 6.232 6.267 0 13.99 0Zm0 3.673c-5.708 0-10.297 4.563-10.297 10.24 0 5.676 4.589 10.24 10.296 10.24 5.708 0 10.296-4.564 10.296-10.24 0-5.677-4.588-10.24-10.296-10.24Zm71.904 5.732c4.14 0 7.106 3.005 7.106 6.567v.055c0 3.562-2.966 6.623-7.162 6.623-4.141 0-7.107-3.005-7.107-6.567v-.056c0-3.561 2.966-6.622 7.163-6.622Zm-48.18-3.896c.169-.055.337.112.337.223v4.007h7.442c.168 0 .28.111.335.222l.616 2.282.56 2.282.056.111.055-.223 1.4-4.619c.055-.11.223-.222.335-.222h3.693c.168 0 .28.111.336.222l1.455 4.953.056-.222 1.23-4.62c.057-.11.225-.222.337-.222h9.512c.112 0 .224.111.224.278v12.132c0 .111-.112.223-.224.223h-4.756c-.112 0-.224-.112-.224-.223V10.407l-3.581 11.686c-.056.111-.224.223-.336.223h-3.917a.378.378 0 0 1-.336-.223l-.783-2.448-.84-2.672-1.678 5.176c-.056.111-.224.222-.336.222h-3.917a.378.378 0 0 1-.335-.222l-3.526-11.631v3.005c0 .111-.112.223-.224.223h-2.685v3.172c0 .946.447 1.28 1.287 1.28.447 0 .839-.056 1.343-.279.111 0 .28.056.28.223v3.673c-.84.445-2.071.723-3.358.723-3.078 0-4.756-1.447-4.756-4.507V13.69H31.56c-.112 0-.224-.111-.224-.223V9.906c0-.112.112-.223.224-.223h1.23V7.18c0-.111.057-.167.224-.223l4.7-1.447Zm34.023-.055c.111 0 .223.111.223.222v16.417c0 .111-.112.223-.223.223H66.98c-.112 0-.224-.112-.224-.223V5.676c0-.111.112-.222.224-.222h4.757Zm6.267 4.23c.111 0 .223.11.223.277v12.132c0 .111-.112.223-.223.223h-4.757c-.112 0-.224-.112-.224-.223V9.906c0-.112.112-.223.224-.223h4.757Zm-60.546 4.785a2.902 2.902 0 0 1 2.91 2.894 2.902 2.902 0 0 1-2.91 2.894 2.902 2.902 0 0 1-2.91-2.894 2.902 2.902 0 0 1 2.91-2.894Zm-6.938 0a2.902 2.902 0 0 1 2.91 2.894 2.902 2.902 0 0 1-2.91 2.894 2.902 2.902 0 0 1-2.91-2.894 2.902 2.902 0 0 1 2.91-2.894Zm75.318-.723c-1.175 0-2.015.946-2.015 2.17v.056c0 1.224.895 2.226 2.07 2.226 1.176 0 2.015-.947 2.015-2.17 0-1.28-.895-2.282-2.07-2.282Zm-68.38-6.178a2.902 2.902 0 0 1 2.91 2.894 2.902 2.902 0 0 1-2.91 2.894 2.902 2.902 0 0 1-2.91-2.894 2.902 2.902 0 0 1 2.91-2.894Zm-6.938 0a2.902 2.902 0 0 1 2.91 2.894 2.902 2.902 0 0 1-2.91 2.894 2.902 2.902 0 0 1-2.91-2.894 2.902 2.902 0 0 1 2.91-2.894Zm55.005-2.114c.168 0 .28.111.224.222v2.838c0 .112-.112.223-.224.223h-4.924c-.112 0-.224-.111-.224-.223V5.676c0-.111.112-.222.224-.222h4.924Zm12.535 0c.167 0 .28.111.223.222v2.838c0 .112-.112.223-.223.223h-4.925c-.112 0-.223-.111-.223-.223V5.676c0-.111.111-.222.223-.222h4.925Z"/></svg>