<svg xmlns="http://www.w3.org/2000/svg" width="16" height="16" fill="none"><path fill="#F5F5F5" d="M0 0h16v16H0z"/><g clip-path="url(#a)"><path fill="#fff" d="M-662-1861H778v4533H-662z"/><rect width="1140" height="335" x="-512" y="-236" fill="#111214" rx="2"/><mask id="b" width="1140" height="335" x="-512" y="-236" maskUnits="userSpaceOnUse" style="mask-type:alpha"><rect width="1140" height="335" x="-512" y="-236" fill="#111214" rx="2"/></mask><g fill="#fff" mask="url(#b)"><path fill-opacity=".02" d="M-914 296.249 374.583-740.001l191.642 238.308-1288.582 1036.25z"/><path fill-opacity=".04" d="M-605 395.667 791.037-726.996l213.969 266.07L-391.031 661.739z"/></g><path fill="#FE390C" d="M14 11v3H2v-3H0v3c0 1.1.9 2 2 2h12c1.1 0 2-.9 2-2v-3h-2Zm-1-4-1.41-1.41L9 8.17V0H7v8.17L4.41 5.59 3 7l5 5 5-5Z"/></g><defs><clipPath id="a"><path fill="#fff" d="M-662-1861H778v4533H-662z"/></clipPath></defs></svg>